<?xml version="1.0" encoding="utf-8"?>
<!-- Generator: Adobe Illustrator 16.0.0, SVG Export Plug-In . SVG Version: 6.00 Build 0)  -->
<!DOCTYPE svg PUBLIC "-//W3C//DTD SVG 1.1//EN" "http://www.w3.org/Graphics/SVG/1.1/DTD/svg11.dtd">
<svg version="1.1" id="Layer_2" xmlns="http://www.w3.org/2000/svg" xmlns:xlink="http://www.w3.org/1999/xlink" x="0px" y="0px"
	 width="864px" height="864px" viewBox="0 0 864 864" enable-background="new 0 0 864 864" xml:space="preserve">
<rect x="94.253" y="96.798" fill="#FECC81" width="659.494" height="659.494"/>
<rect x="351.317" y="465.418" fill="#F7941E" width="149.367" height="74.684"/>
<g>
	<polygon fill="#594A42" points="94.253,96.798 94.253,224.646 94.253,229.709 94.253,318.317 187.924,318.317 187.924,229.709 
		660.076,229.709 660.076,318.317 753.747,318.317 753.747,229.709 753.747,224.646 753.747,96.798 	"/>
	<polygon fill="#594A42" points="606.42,683.896 606.42,541.102 537.291,541.102 537.291,611.987 315.772,611.987 315.772,540.468 
		242.354,541.733 242.354,685.162 	"/>
</g>
<g>
	<g>
		<rect x="203.114" y="390.469" fill="#FFFFFF" width="149.367" height="74.684"/>
	</g>
	<g>
		<rect x="499.836" y="390.469" fill="#FFFFFF" width="149.367" height="74.684"/>
	</g>
</g>
<g>
	<g>
		
			<rect x="277.797" y="390.393" fill="#1C75BC" stroke="#FECC81" stroke-width="0.5771" stroke-miterlimit="10" width="74.835" height="74.835"/>
	</g>
	<g>
		
			<rect x="499.684" y="390.393" fill="#1C75BC" stroke="#FECC81" stroke-width="0.5771" stroke-miterlimit="10" width="74.836" height="74.835"/>
	</g>
</g>
</svg>
